<svg width="80" height="80" viewBox="0 0 80 80" fill="none" xmlns="http://www.w3.org/2000/svg">
<circle cx="39.9999" cy="33.3333" r="6.66667" fill="#66FF88"/>
<rect x="6.66675" y="13.3334" width="13.3333" height="6.66667" fill="#FF7066"/>
<path fill-rule="evenodd" clip-rule="evenodd" d="M50.0001 33.3334C50.0001 38.8562 45.5229 43.3334 40.0001 43.3334C34.4772 43.3334 30.0001 38.8562 30.0001 33.3334C30.0001 27.8105 34.4772 23.3334 40.0001 23.3334C45.5229 23.3334 50.0001 27.8105 50.0001 33.3334ZM60.0001 33.3334C60.0001 44.3791 51.0458 53.3334 40.0001 53.3334C28.9544 53.3334 20.0001 44.3791 20.0001 33.3334C20.0001 32.1977 20.0947 31.0841 20.2766 30H16.6667V56.6667H63.3334V30H59.7236C59.9054 31.0841 60.0001 32.1977 60.0001 33.3334ZM54.9075 20H73.3334V66.6667H6.66675V20H25.0927C28.7548 15.9084 34.0768 13.3334 40.0001 13.3334C45.9234 13.3334 51.2453 15.9084 54.9075 20Z" fill="#472B43"/>
</svg>
