<svg width="150" height="60" viewBox="0 0 150 60" fill="none" xmlns="http://www.w3.org/2000/svg">
<path d="M117.656 50.9793L118.155 51.1786L118.553 51.5274C118.694 51.617 118.813 51.736 118.902 51.8763V48.3879H120.048V57.5074H119.201L119.052 57.1087C118.99 56.9125 118.94 56.7129 118.902 56.5107C118.796 56.6677 118.661 56.803 118.504 56.9094L118.055 57.2084L117.507 57.4576L116.959 57.5572H116.809L116.211 57.4576L115.564 57.2582L114.866 56.8596C114.641 56.6683 114.441 56.4508 114.268 56.2117C114.157 56.0984 114.072 55.9624 114.019 55.8131C113.931 55.6562 113.864 55.4887 113.819 55.3147C113.762 55.1371 113.729 54.9529 113.72 54.7666C113.676 54.5535 113.66 54.3359 113.67 54.1187C113.662 53.9346 113.678 53.7502 113.72 53.5706C113.729 53.4006 113.763 53.2328 113.819 53.0722C113.865 52.9143 113.932 52.7634 114.019 52.6237L114.268 52.2251C114.426 51.9746 114.629 51.7551 114.866 51.5773L115.564 51.1786C115.796 51.0511 116.049 50.9667 116.311 50.9294H117.058C117.259 50.9008 117.463 50.9178 117.656 50.9793ZM117.706 56.2616C117.969 56.1419 118.206 55.9727 118.404 55.7632C118.599 55.5629 118.751 55.3257 118.852 55.0656C118.954 54.7948 119.005 54.5076 119.002 54.2184C119.005 53.9292 118.954 53.642 118.852 53.3712C118.751 53.1111 118.599 52.8739 118.404 52.6736C118.22 52.4487 117.979 52.2768 117.706 52.1753C117.453 52.0726 117.182 52.0218 116.909 52.0258C116.62 52.0229 116.333 52.0735 116.062 52.1753C115.805 52.2802 115.581 52.4523 115.414 52.6736C115.205 52.8719 115.035 53.1088 114.916 53.3712C114.814 53.642 114.763 53.9292 114.766 54.2184C114.763 54.5076 114.814 54.7948 114.916 55.0656C115.035 55.328 115.205 55.5649 115.414 55.7632C115.594 55.9713 115.815 56.1408 116.062 56.2616C116.333 56.3633 116.62 56.414 116.909 56.4111C117.182 56.415 117.453 56.3642 117.706 56.2616Z" fill="#FCFCFC"/>
<path d="M121.544 48.3381H122.74V49.4345H121.544V48.3381ZM121.544 50.8796H122.74V57.4576H121.544V50.8796Z" fill="#FCFCFC"/>
<path d="M130.065 50.9294V56.7101C130.083 57.1997 130.015 57.6887 129.866 58.1552C129.776 58.5308 129.587 58.8751 129.318 59.1519C129.076 59.4378 128.768 59.6603 128.421 59.7997C128.004 59.942 127.565 60.0095 127.125 59.9991L126.377 59.8994L125.68 59.6502L125.082 59.2516L124.583 58.8031L124.882 58.5041L125.331 58.0556L125.68 58.3546L126.078 58.6536L126.577 58.8031H127.125C127.395 58.8229 127.666 58.7891 127.922 58.7034C128.143 58.6282 128.346 58.5096 128.52 58.3546C128.694 58.1752 128.815 57.9509 128.869 57.7067C128.975 57.3682 129.026 57.0149 129.019 56.6602V56.0622L128.67 56.4609C128.556 56.5837 128.421 56.685 128.271 56.7599L127.823 57.0091L127.225 57.1087H126.527L125.829 56.9094C125.569 56.8079 125.332 56.6555 125.132 56.4609L124.583 55.9127C124.489 55.7871 124.406 55.6537 124.334 55.5141L124.185 55.1154C124.112 54.957 124.062 54.7893 124.035 54.6171V54.0689C124.041 53.7345 124.075 53.4012 124.135 53.0723C124.207 52.765 124.343 52.4763 124.534 52.2251C124.677 51.9927 124.863 51.7897 125.082 51.6271L125.68 51.1786L126.029 51.0291L126.427 50.9294H127.125L127.673 51.0291C127.854 51.0511 128.025 51.1198 128.171 51.2284L128.57 51.4776L128.919 51.8264L129.218 50.9793L130.065 50.9294ZM128.919 53.2218C128.817 52.9616 128.665 52.7244 128.47 52.5241C128.288 52.3308 128.068 52.178 127.823 52.0756C127.589 51.9679 127.333 51.9167 127.075 51.9261C126.818 51.9233 126.564 51.9742 126.328 52.0756C126.083 52.178 125.862 52.3308 125.68 52.5241C125.498 52.7154 125.346 52.934 125.231 53.1719C125.13 53.4427 125.079 53.7299 125.082 54.0191C125.083 54.2756 125.134 54.5294 125.231 54.7666C125.333 55.0267 125.485 55.2639 125.68 55.4643C125.862 55.6575 126.083 55.8103 126.328 55.9127C126.564 56.0141 126.818 56.065 127.075 56.0622C127.333 56.0716 127.589 56.0204 127.823 55.9127C128.068 55.8103 128.288 55.6575 128.47 55.4643C128.664 55.2821 128.816 55.0614 128.919 54.8164C129.017 54.5619 129.067 54.2917 129.068 54.0191C129.072 53.746 129.022 53.4749 128.919 53.2218Z" fill="#FCFCFC"/>
<path d="M131.61 48.3381H132.756V49.4345H131.61V48.3381ZM131.61 50.8796H132.756V57.4576H131.61V50.8796Z" fill="#FCFCFC"/>
<path d="M138.287 57.3081L137.789 57.4078H137.141C136.937 57.4243 136.731 57.3901 136.543 57.3081C136.341 57.2778 136.151 57.1915 135.995 57.0589L135.796 56.9094L135.646 56.7599L135.546 56.5606L135.447 56.3613C135.396 56.2334 135.362 56.0994 135.347 55.9626C135.306 55.8168 135.289 55.6653 135.297 55.5141C135.256 55.3854 135.239 55.2503 135.247 55.1155V51.9261H134.301V50.8796H135.247V48.2883H136.394V50.8796H138.088V51.9261H136.394V54.9161C136.386 55.051 136.402 55.1861 136.443 55.3148C136.443 55.4145 136.443 55.564 136.493 55.6138C136.543 55.6636 136.543 55.7633 136.543 55.863L136.693 56.0623C136.742 56.162 136.792 56.2118 136.892 56.2118L137.191 56.3115H137.639L138.188 56.2118C138.237 56.7101 138.287 57.0589 138.287 57.3081Z" fill="#FCFCFC"/>
<path d="M146.011 50.9294V57.4576H145.114L144.965 57.0589C144.903 56.8627 144.853 56.663 144.815 56.4609C144.709 56.6179 144.574 56.7532 144.417 56.8596L143.968 57.1586L143.47 57.4077L142.872 57.5074H142.124L141.726 57.4077L141.377 57.2582C141.132 57.1558 140.911 57.003 140.729 56.8097C140.504 56.6185 140.304 56.401 140.131 56.1619C139.949 55.9055 139.814 55.6186 139.732 55.3147C139.63 54.9583 139.58 54.5891 139.583 54.2184C139.576 53.8801 139.626 53.5431 139.732 53.2218C139.803 52.9293 139.94 52.6567 140.131 52.4244C140.303 52.1699 140.504 51.9358 140.729 51.7268L141.377 51.2783L141.775 51.1288L142.174 51.0291H142.971L143.569 51.1288C143.749 51.1809 143.918 51.2654 144.068 51.3779L144.516 51.6769L144.815 52.0258V51.1288L146.011 50.9294ZM144.765 53.3713C144.665 53.0957 144.513 52.8419 144.317 52.6238C144.117 52.4292 143.879 52.2767 143.619 52.1753C143.371 52.0513 143.099 51.9832 142.822 51.9759C142.549 51.972 142.278 52.0228 142.025 52.1254C141.773 52.2626 141.538 52.43 141.327 52.6238C141.143 52.8322 140.992 53.0675 140.878 53.3214C140.781 53.5933 140.73 53.8798 140.729 54.1686C140.726 54.4578 140.777 54.745 140.878 55.0158C140.98 55.2759 141.132 55.5131 141.327 55.7134C141.525 55.9228 141.762 56.0921 142.025 56.2117C142.278 56.3144 142.549 56.3652 142.822 56.3612C143.095 56.3652 143.366 56.3144 143.619 56.2117C143.892 56.1102 144.133 55.9383 144.317 55.7134C144.511 55.5131 144.664 55.2759 144.765 55.0158C144.907 54.7564 144.976 54.4638 144.965 54.1686C144.977 53.8891 144.908 53.6121 144.765 53.3713Z" fill="#FCFCFC"/>
<path d="M147.606 48.3381H148.752V57.4576H147.606V48.3381Z" fill="#FCFCFC"/>
<path d="M28.405 38.0723L26.91 37.7734L25.5645 37.275C25.101 37.0725 24.6516 36.8395 24.219 36.5774C23.488 36.1153 22.8182 35.5628 22.2257 34.9329C21.5956 34.2671 21.0439 33.5315 20.5812 32.7402C20.11 31.9488 19.7574 31.0925 19.5347 30.1987C19.2934 29.2884 19.1761 28.3498 19.1859 27.4081C19.1859 26.9097 19.2357 26.3616 19.2855 25.8633L19.5845 24.4181C19.734 23.9198 19.9334 23.4713 20.0829 23.0228L20.7805 21.7271C21.2702 21.001 21.8203 20.3175 22.425 19.684C23.1035 19.0692 23.8375 18.5186 24.6177 18.0395C25.4113 17.5843 26.2677 17.2485 27.1592 17.0428C28.0524 16.8011 28.9747 16.6837 29.9 16.694C30.4169 16.6776 30.9342 16.711 31.4448 16.7936L32.89 17.0926C33.3722 17.2061 33.8403 17.3732 34.2853 17.591L35.5809 18.2886C36.3365 18.7372 37.0244 19.2909 37.6241 19.9331C38.2389 20.6116 38.7894 21.3456 39.2686 22.1258C39.7601 22.9069 40.1141 23.7665 40.3151 24.6673C40.56 25.5599 40.6774 26.4826 40.6639 27.4081C40.6737 28.3498 40.5564 29.2884 40.3151 30.1987C40.1141 31.0995 39.7601 31.9591 39.2686 32.7402C38.7894 33.5204 38.2389 34.2544 37.6241 34.9329C37.0244 35.5751 36.3365 36.1288 35.5809 36.5774L34.2853 37.275L32.89 37.7734L31.4448 38.0723L29.9 38.172L28.405 38.0723ZM27.9067 22.5244C27.2766 22.7998 26.7024 23.1883 26.2123 23.6706C25.7255 24.1569 25.3364 24.7321 25.0662 25.3649C24.7817 26.0075 24.6455 26.7057 24.6675 27.4081C24.6455 28.1104 24.7817 28.8087 25.0662 29.4512C25.3364 30.0841 25.7255 30.6593 26.2123 31.1456C26.7024 31.6278 27.2766 32.0163 27.9067 32.2917C28.5421 32.5366 29.2192 32.6551 29.9 32.6405C30.597 32.6553 31.2905 32.5369 31.9431 32.2917C32.5663 32.0041 33.1386 31.617 33.6375 31.1456C34.1243 30.6593 34.5134 30.0841 34.7836 29.4512C35.0446 28.8015 35.1799 28.1082 35.1823 27.4081C35.1799 26.7079 35.0446 26.0146 34.7836 25.3649C34.5134 24.7321 34.1243 24.1569 33.6375 23.6706C33.1386 23.1992 32.5663 22.8121 31.9431 22.5244C31.2905 22.2793 30.597 22.1609 29.9 22.1756C29.2192 22.1611 28.5421 22.2796 27.9067 22.5244Z" fill="#FCFCFC"/>
<path d="M51.0787 38.0724L42.8562 18.2887L47.8395 16.395C48.4873 17.89 49.2847 19.7338 50.1817 21.9265C51.0787 24.1191 52.175 26.8101 53.4208 29.8001L59.0519 16.395L61.1449 17.1425L64.0352 18.2887L55.8128 38.0724H51.0787Z" fill="#FCFCFC"/>
<path d="M73.0056 29.0525C73.1166 29.6209 73.3366 30.1624 73.6535 30.6471C73.9472 31.0761 74.2995 31.4618 74.7 31.7933C75.1335 32.1148 75.6238 32.3515 76.1451 32.4909C76.6967 32.6469 77.2663 32.7307 77.8395 32.7401C78.2099 32.7396 78.5787 32.6893 78.9358 32.5906C79.329 32.4714 79.7123 32.3215 80.0819 32.1421L81.0786 31.5441C81.3599 31.3684 81.6121 31.1498 81.8261 30.8963H81.8759L85.6134 34.6836C85.1314 35.2322 84.5973 35.7329 84.0188 36.1786C83.3942 36.5839 82.7452 36.95 82.0753 37.2749C81.3903 37.5894 80.6712 37.8235 79.9324 37.9726C79.2522 38.1696 78.5477 38.2703 77.8395 38.2716C76.4629 38.2844 75.0954 38.048 73.803 37.5739C72.5763 37.1293 71.4561 36.4334 70.514 35.5308C69.5408 34.6426 68.7459 33.5771 68.1718 32.3913C67.6311 31.1757 67.2943 29.8792 67.1752 28.5541V27.6073C67.1752 27.109 67.1752 26.5608 67.225 26.0625L67.524 24.5675C67.652 24.0896 67.8187 23.623 68.0223 23.1722C68.1705 22.7185 68.3712 22.2836 68.6203 21.8765C69.0138 21.0945 69.5173 20.3729 70.1153 19.7337C70.7013 19.1108 71.3724 18.5739 72.1087 18.139C72.818 17.7268 73.5699 17.3927 74.3511 17.1424C75.1807 16.9218 76.0343 16.8046 76.8926 16.7935H77.0421C78.4443 16.7788 79.8347 17.0501 81.1284 17.5909C82.2949 18.1035 83.3206 18.8898 84.1184 19.8832C84.9076 20.8639 85.5151 21.9777 85.9124 23.1722C86.3613 24.4181 86.5808 25.735 86.5602 27.0591V27.7568L86.4606 28.4545C86.4606 28.7036 86.4107 28.903 86.4107 29.1023L73.0056 29.0525ZM81.1783 25.5642C81.0739 25.1019 80.9236 24.6511 80.7298 24.2187C80.5171 23.787 80.2491 23.385 79.9324 23.0227C79.6217 22.6331 79.207 22.3394 78.7364 22.1755C78.1963 21.9674 77.6209 21.8659 77.0421 21.8765C76.5159 21.858 75.9911 21.9426 75.4973 22.1257C75.0525 22.3148 74.6469 22.5852 74.3013 22.923C73.9481 23.278 73.6462 23.6805 73.4043 24.119C73.1902 24.557 73.0553 25.0294 73.0056 25.5143L81.1783 25.5642Z" fill="#FCFCFC"/>
<path d="M102.806 22.3749H101.66C100.904 22.3545 100.154 22.5079 99.4669 22.8234C98.8495 23.1824 98.3214 23.6765 97.922 24.2686C97.5138 24.8963 97.2108 25.5864 97.025 26.3117C96.8431 27.1303 96.7429 27.965 96.726 28.8034V38.1222H91.0451V29.3017C91.0451 25.8134 91.0451 21.7271 90.9952 17.0428H96.726V20.0826C97.0688 19.6481 97.4526 19.2476 97.8722 18.8866C98.2611 18.516 98.6967 18.1977 99.1679 17.9398L100.563 17.2421C101.078 17.066 101.615 16.9653 102.158 16.9431H103.802L103.503 19.3351C103.404 20.2321 103.254 21.3284 103.155 22.6241L102.806 22.3749Z" fill="#FCFCFC"/>
<path d="M127.922 16.8435V38.0226H123.486L123.038 36.7269L122.49 34.9329L121.194 36.2286C120.7 36.6179 120.166 36.9522 119.599 37.2252L117.905 37.9229C117.325 38.1031 116.719 38.1872 116.111 38.1721H115.762C114.939 38.1741 114.119 38.0737 113.32 37.8731C112.502 37.684 111.714 37.3821 110.978 36.9761C110.196 36.5826 109.475 36.0791 108.835 35.4811C108.183 34.8782 107.613 34.1911 107.141 33.4379C106.879 33.0225 106.646 32.5896 106.443 32.1423C106.233 31.6599 106.066 31.1595 105.945 30.6473C105.777 30.1115 105.66 29.5608 105.596 29.0028C105.512 28.392 105.479 27.7753 105.497 27.159C105.48 26.6089 105.514 26.0585 105.596 25.5145C105.665 25.0062 105.782 24.5057 105.945 24.0195C106.098 23.5268 106.281 23.0442 106.493 22.5743C106.669 22.1395 106.886 21.7224 107.141 21.3285C107.626 20.5999 108.195 19.9309 108.835 19.3352C109.476 18.7525 110.198 18.2658 110.978 17.89C111.731 17.4832 112.536 17.1814 113.37 16.993C114.151 16.7896 114.955 16.6891 115.762 16.694H116.51C117.15 16.7574 117.783 16.8741 118.403 17.0428C118.98 17.2018 119.533 17.4364 120.048 17.7405C120.497 18.0321 120.929 18.3482 121.344 18.6873C121.731 19.0323 122.082 19.4164 122.39 19.8335V16.8435H127.922ZM121.991 25.1158C121.709 24.392 121.285 23.7315 120.746 23.1723C120.193 22.6352 119.553 22.1969 118.852 21.8767C118.143 21.5753 117.38 21.4227 116.609 21.4282C115.855 21.4224 115.108 21.5752 114.417 21.8767C113.747 22.1998 113.14 22.6384 112.623 23.1723C112.068 23.7295 111.628 24.3897 111.327 25.1158C111.066 25.852 110.931 26.627 110.928 27.4081C110.931 28.1892 111.066 28.9643 111.327 29.7004C111.604 30.4392 112.047 31.1043 112.623 31.6439C113.133 32.2203 113.762 32.6793 114.467 32.9894C115.157 33.2953 115.905 33.4483 116.659 33.4379C117.43 33.4434 118.193 33.2907 118.902 32.9894C119.606 32.6793 120.235 32.2203 120.746 31.6439C121.309 31.1132 121.75 30.4673 122.041 29.7503C122.327 29.0034 122.462 28.2075 122.44 27.4081C122.421 26.6241 122.27 25.849 121.991 25.1158Z" fill="#FCFCFC"/>
<path d="M138.486 37.9727H132.656V8.6709H138.486V37.9727Z" fill="#FCFCFC"/>
<path d="M149.749 37.9727H143.968V8.6709H149.749V37.9727Z" fill="#FCFCFC"/>
<path opacity="0.6" d="M8.18427 0L7.94903 6.58172L2.04362 3.52855L0 7.17961L5.98383 10.5317L10.4092 13.0115L12.3646 11.8402V6.71404V0H8.18427Z" fill="#FCFCFC"/>
<path opacity="0.8" d="M13.9671 9.9437L19.4021 6.43965L17.2556 2.85229L11.5511 6.26322L7.14038 8.90474L7.14528 11.1885L11.5511 13.6536L17.4565 16.9616L19.5001 13.3154L13.9671 9.9437Z" fill="#FCFCFC"/>
<path d="M10.3503 6.97876L5.98371 9.59087L0.0979004 13.1145L2.24443 16.7019L7.96362 13.536L8.18416 20.0001H12.3645V13.1635V8.10594L10.3503 6.97876Z" fill="#FCFCFC"/>
</svg>
