<svg width="72" height="74" viewBox="0 0 72 74" fill="none" xmlns="http://www.w3.org/2000/svg">
<g filter="url(#filter0_d)">
<path opacity="0.6" d="M31.1822 7L30.4584 27.2513L12.288 17.857L6 29.0909L24.4116 39.4051L38.0281 47.0351L44.0447 43.4312V27.6584V7H31.1822Z" fill="#FCFCFC"/>
<path opacity="0.8" d="M48.9755 37.5955L65.6982 26.8139L59.0936 15.776L41.5414 26.2711L27.9702 34.3987L27.9853 41.4256L41.5414 49.0104L59.7118 59.1888L65.9998 47.97L48.9755 37.5955Z" fill="#FCFCFC"/>
<path d="M37.8471 28.4728L24.4116 36.51L6.30151 47.3519L12.9062 58.3898L30.5035 48.6487L31.1821 68.5381H44.0446V47.5027V31.941L37.8471 28.4728Z" fill="#FCFCFC"/>
</g>
<defs>
<filter id="filter0_d" x="0" y="0" width="72" height="73.5381" filterUnits="userSpaceOnUse" color-interpolation-filters="sRGB">
<feFlood flood-opacity="0" result="BackgroundImageFix"/>
<feColorMatrix in="SourceAlpha" type="matrix" values="0 0 0 0 0 0 0 0 0 0 0 0 0 0 0 0 0 0 127 0"/>
<feOffset dy="-1"/>
<feGaussianBlur stdDeviation="3"/>
<feColorMatrix type="matrix" values="0 0 0 0 0 0 0 0 0 0 0 0 0 0 0 0 0 0 0.06 0"/>
<feBlend mode="normal" in2="BackgroundImageFix" result="effect1_dropShadow"/>
<feBlend mode="normal" in="SourceGraphic" in2="effect1_dropShadow" result="shape"/>
</filter>
</defs>
</svg>
