<svg width="819" height="615" viewBox="0 0 819 615" fill="none" xmlns="http://www.w3.org/2000/svg">
<mask id="mask0" mask-type="alpha" maskUnits="userSpaceOnUse" x="0" y="0" width="819" height="615">
<rect width="818.798" height="614.098" rx="2" fill="#FFD666"/>
</mask>
<g mask="url(#mask0)">
<path d="M652.318 101.115L653.753 51.6343C653.753 51.6343 593.503 56.4219 580.614 49.7401C580.614 49.7401 567.883 -31.7185 584.03 -77.8555L711.175 -92.6975L720.464 -18.7783C724.747 -31.3855 757.931 -46.7881 767.172 -28.7347C787.195 10.3844 715.6 36.7245 715.6 36.7245L722.87 101.711" fill="#FFD666"/>
<path opacity="0.402158" fill-rule="evenodd" clip-rule="evenodd" d="M653.753 51.6338L694.379 42.9402L653.949 70.198L653.753 51.6338Z" fill="#472B43"/>
<path fill-rule="evenodd" clip-rule="evenodd" d="M620.24 -29.2263L606.2 5.02686L623.028 5.24085L620.24 -29.2263Z" fill="#FF7066"/>
<path fill-rule="evenodd" clip-rule="evenodd" d="M637.697 14.9399C637.697 14.9399 631.817 24.4563 620.169 23.6501Z" fill="white"/>
<path d="M637.697 14.9399C637.697 14.9399 631.817 24.4563 620.169 23.6501" stroke="#472B43" stroke-width="4"/>
<path d="M691.075 586.63L812.503 1189.26L906.014 1189.27L794.867 392.988L573.642 392.949L580.64 1186.14L609.338 1186.56L663.974 1187.38L664.174 1187.38L678.107 1187.58L691.075 586.63Z" fill="#472B43"/>
<path opacity="0.200893" fill-rule="evenodd" clip-rule="evenodd" d="M690.568 582.171L669.617 488.947L685.255 771.563L690.568 582.171Z" fill="#2E172B"/>
<path d="M538.755 233.968L571.06 251.143L578.942 385.812L801.997 385.852L805.859 249.984L876.434 197.221C876.434 197.221 843.232 130.473 786.348 103.9C771.527 96.9898 752.879 93.3157 734.245 91.5604C696.881 88.0332 659.625 92.1145 653.57 92.8475L652.714 92.9475C651.658 93.2643 650.599 93.5812 649.577 93.898C649.56 93.898 649.542 93.9147 649.527 93.9147C646.507 94.8485 643.655 95.749 640.937 96.6329C603.171 108.99 591.22 118.999 570.042 148.628C549.909 176.79 538.755 233.968 538.755 233.968" fill="#F0F0F0"/>
<path opacity="0.200219" d="M805.899 249.994L787.997 262.104L745.006 212.127" stroke="#2E172B" stroke-width="5"/>
<path fill-rule="evenodd" clip-rule="evenodd" d="M629.803 346.454C629.803 346.454 622.755 348.238 622.618 352.642C622.617 353.893 665.546 361.98 665.546 361.98L656.199 362.528L646.485 362.058C646.485 362.058 641.435 362.991 641.149 367.162C641.047 368.814 649.988 370.585 660.388 371.939C676.562 374.062 688.19 372.196 699.567 369.113C700.523 368.846 701.446 368.613 702.334 368.38L693.124 309.266C690.02 312.085 684.145 317.088 658.873 323.355C653.807 324.605 636.795 324.834 636.795 324.834C631.795 325.55 621.291 326.515 620.565 332.371C620.381 333.822 622.209 335.391 622.209 335.391C622.209 335.391 615.615 335.839 615.209 341.779C615.038 344.115 629.803 346.454 629.803 346.454" fill="#2E172B"/>
<path fill-rule="evenodd" clip-rule="evenodd" d="M556.574 428.745L712.644 428.787L677.771 214.55L521.7 214.509L556.574 428.745Z" fill="#2E172B"/>
<path fill-rule="evenodd" clip-rule="evenodd" d="M548.184 428.742L704.254 428.783L669.381 214.547L513.31 214.505L548.184 428.742Z" fill="#FCFCFC"/>
<path fill-rule="evenodd" clip-rule="evenodd" d="M734.185 91.5773C728.673 100.207 711.317 121.724 674.125 123.906C629.703 126.489 639.818 99.2452 640.862 96.6578C640.929 96.5242 640.964 96.4575 640.964 96.4575C640.964 96.4575 644.27 95.3561 649.455 93.9377C649.463 93.9377 649.471 93.9337 649.479 93.9297C649.488 93.9254 649.497 93.921 649.506 93.921C650.729 93.5873 652.071 93.2369 653.499 92.8698C659.556 92.1359 696.817 88.0504 734.185 91.5773ZM740.022 300.863L729.199 297.177C729.199 297.177 722.259 294.473 710.539 292.318C706.206 291.522 702.577 291.379 698.775 291.23L698.775 291.23C696.116 291.125 693.373 291.017 690.247 290.68L692.808 307.186C693.294 307.537 693.731 307.954 694.15 308.405C693.913 308.603 693.675 308.82 693.417 309.055L693.416 309.056C693.327 309.137 693.235 309.22 693.141 309.306C690.036 312.126 684.16 317.132 658.893 323.404C653.828 324.655 636.822 324.887 636.822 324.887C636.452 324.94 636.051 324.995 635.627 325.052L635.624 325.053C630.319 325.774 621.269 327.006 620.593 332.429C620.408 333.881 622.234 335.45 622.234 335.45C622.234 335.45 615.643 335.899 615.233 341.841C615.06 344.177 629.817 346.515 629.817 346.515C629.817 346.515 622.771 348.3 622.631 352.706C622.629 353.958 665.535 362.041 665.535 362.041L656.191 362.59L646.482 362.122C646.482 362.122 641.433 363.056 641.144 367.228C641.041 368.88 649.977 370.651 660.372 372.004C676.538 374.125 688.162 372.257 699.537 369.171C700.233 368.977 700.911 368.8 701.57 368.629L701.573 368.628L701.577 368.627C701.822 368.563 702.064 368.5 702.303 368.437C703.988 367.998 705.539 367.61 707.003 367.244L707.003 367.244C715.72 365.064 721.4 363.644 734.303 356.658C735.697 355.902 737.23 354.992 738.82 353.99C777.467 357.646 894.606 366.638 906.38 342.623C929.662 295.125 868.672 203.193 868.672 203.193L800.965 250.262L822.414 286.604L740.022 300.863ZM584.494 421.362L548.614 421.357L540.629 372.015L524.04 442.214C513.841 453.848 502.068 467.58 500.285 470.962C497.056 477.091 491.054 507.441 491.331 513.437C491.608 519.433 510.141 546.38 510.141 546.38C521.666 543.647 514.16 529.732 514.16 529.732C514.16 529.732 524.467 538.185 528.759 538.043C569.167 536.714 567.027 516.898 566.074 514.419C563.936 508.845 553.143 515.216 553.143 515.216C553.143 515.216 571.923 478.412 569.531 450.285C573.737 442.392 578.912 432.486 584.494 421.362Z" fill="#FFD666"/>
<path opacity="0.199382" d="M544.573 468.189C544.573 468.189 538.882 488.93 519.39 495.389C512.574 497.648 514.261 524.327 497.56 521.132" stroke="#2E172B" stroke-width="3"/>
<path fill-rule="evenodd" clip-rule="evenodd" d="M654.788 231.841C655.484 235.388 657.552 237.972 659.406 237.611C661.259 237.251 662.199 234.084 661.503 230.537C660.807 226.99 658.739 224.406 656.885 224.767C655.031 225.127 654.092 228.295 654.788 231.841" fill="#472B43"/>
</g>
</svg>
