<svg width="701" height="570" viewBox="0 0 701 570" fill="none" xmlns="http://www.w3.org/2000/svg">
<mask id="mask0" mask-type="alpha" maskUnits="userSpaceOnUse" x="0" y="0" width="701" height="570">
<rect width="701" height="570" rx="2" fill="#FFD666"/>
</mask>
<g mask="url(#mask0)">
<path d="M510.206 153.535L511.262 117.119C511.262 117.119 466.921 120.642 457.435 115.725C457.435 115.725 448.066 55.775 459.949 21.8203L553.522 10.8973L560.359 65.2985C563.511 56.0201 587.933 44.6845 594.733 57.971C609.47 86.7608 556.779 106.146 556.779 106.146L562.129 153.973" fill="#FFD666"/>
<path d="M557.062 68.5054C565.986 56.2823 577.539 52.8982 580.727 52.1699C584.614 34.7693 589.181 -10.2771 534.756 -17.4231C469.781 -25.9539 459.949 21.8207 459.949 21.8207L543.648 20.7971V65.1591L557.062 68.5054V68.5054Z" fill="#FF7066"/>
<path opacity="0.402158" fill-rule="evenodd" clip-rule="evenodd" d="M511.262 117.119L541.161 110.72L511.407 130.781L511.262 117.119Z" fill="#472B43"/>
<path fill-rule="evenodd" clip-rule="evenodd" d="M486.598 57.6093L476.266 82.818L488.65 82.9755L486.598 57.6093Z" fill="#FF7066"/>
<path fill-rule="evenodd" clip-rule="evenodd" d="M498.379 64.7731C497.763 68.1679 500.023 71.4174 503.424 72.0307C506.826 72.6452 510.082 70.3905 510.697 66.9968C511.312 63.6019 509.053 60.3524 505.652 59.738C502.25 59.1247 498.995 61.3783 498.379 64.7731" fill="#472B43"/>
<path fill-rule="evenodd" clip-rule="evenodd" d="M465.882 64.7731C465.267 68.1679 467.526 71.4174 470.927 72.0307C474.329 72.6452 477.585 70.3905 478.2 66.9968C478.816 63.6019 476.556 60.3524 473.155 59.738C469.753 59.1247 466.498 61.3783 465.882 64.7731" fill="#472B43"/>
<path fill-rule="evenodd" clip-rule="evenodd" d="M499.446 90.1135C499.446 90.1135 495.118 97.1171 486.546 96.5238Z" fill="white"/>
<path d="M499.446 90.1135C499.446 90.1135 495.118 97.1171 486.546 96.5238" stroke="#472B43" stroke-width="4"/>
<path d="M538.73 510.851L628.095 954.356L696.915 954.368L615.116 368.34L452.304 368.311L457.454 952.06L478.575 952.369L518.784 952.973L518.931 952.973L529.186 953.121L538.73 510.851Z" fill="#472B43"/>
<path opacity="0.200893" fill-rule="evenodd" clip-rule="evenodd" d="M538.356 507.569L522.937 438.961L534.447 646.953L538.356 507.569Z" fill="#2E172B"/>
<path d="M426.629 251.308L450.404 263.948L456.205 363.058L620.363 363.088L623.206 263.095L675.145 224.264C675.145 224.264 650.71 175.141 608.846 155.584C597.939 150.498 584.215 147.794 570.501 146.503C543.002 143.907 515.584 146.91 511.128 147.45L510.498 147.523C509.72 147.757 508.941 147.99 508.189 148.223C508.177 148.223 508.163 148.235 508.152 148.235C505.93 148.922 503.83 149.585 501.83 150.236C474.036 159.33 465.241 166.696 449.655 188.502C434.838 209.227 426.629 251.308 426.629 251.308" fill="#F0F0F0"/>
<path opacity="0.200219" d="M623.235 263.103L610.06 272.015L578.42 235.234" stroke="#2E172B" stroke-width="5"/>
<path fill-rule="evenodd" clip-rule="evenodd" d="M493.636 334.093C493.636 334.093 488.449 335.405 488.348 338.647C488.348 339.568 519.941 345.519 519.941 345.519L513.062 345.922L505.913 345.577C505.913 345.577 502.196 346.263 501.986 349.333C501.911 350.548 508.492 351.852 516.145 352.848C528.048 354.411 536.606 353.038 544.979 350.768C545.683 350.572 546.362 350.401 547.015 350.229L540.238 306.724C537.953 308.798 533.63 312.481 515.03 317.093C511.302 318.012 498.782 318.181 498.782 318.181C495.102 318.708 487.372 319.418 486.837 323.728C486.702 324.796 488.047 325.951 488.047 325.951C488.047 325.951 483.195 326.281 482.896 330.652C482.77 332.371 493.636 334.093 493.636 334.093" fill="#2E172B"/>
<path fill-rule="evenodd" clip-rule="evenodd" d="M439.743 394.655L554.603 394.686L528.938 237.017L414.077 236.987L439.743 394.655Z" fill="#2E172B"/>
<path fill-rule="evenodd" clip-rule="evenodd" d="M433.568 394.653L548.428 394.683L522.764 237.015L407.903 236.984L433.568 394.653Z" fill="#FCFCFC"/>
<path fill-rule="evenodd" clip-rule="evenodd" d="M570.456 146.515C566.4 152.866 553.626 168.702 526.255 170.308C493.562 172.208 501.007 152.158 501.775 150.254C501.824 150.156 501.85 150.107 501.85 150.107C501.85 150.107 504.283 149.296 508.099 148.252C508.105 148.252 508.111 148.249 508.117 148.246C508.123 148.243 508.13 148.24 508.136 148.24C509.037 147.994 510.025 147.736 511.076 147.466C515.533 146.926 542.956 143.919 570.456 146.515ZM574.752 300.54L566.787 297.827C566.787 297.827 561.68 295.837 553.054 294.251C549.866 293.665 547.194 293.56 544.396 293.45L544.396 293.45C542.439 293.373 540.421 293.294 538.12 293.046L540.005 305.193C540.362 305.451 540.684 305.758 540.992 306.09C540.818 306.236 540.642 306.396 540.452 306.569L540.451 306.57C540.386 306.63 540.319 306.691 540.25 306.753C537.965 308.829 533.64 312.513 515.045 317.129C511.317 318.05 498.802 318.22 498.802 318.22C498.529 318.259 498.233 318.3 497.92 318.342C494.016 318.873 487.356 319.779 486.858 323.771C486.722 324.839 488.066 325.994 488.066 325.994C488.066 325.994 483.215 326.325 482.913 330.697C482.786 332.417 493.646 334.138 493.646 334.138C493.646 334.138 488.461 335.451 488.358 338.694C488.357 339.615 519.933 345.564 519.933 345.564L513.057 345.968L505.911 345.624C505.911 345.624 502.195 346.311 501.982 349.381C501.907 350.597 508.483 351.9 516.133 352.896C528.031 354.457 536.586 353.083 544.957 350.811C545.47 350.668 545.97 350.538 546.456 350.411C546.637 350.364 546.816 350.318 546.993 350.271C548.232 349.948 549.372 349.663 550.449 349.394L550.452 349.393C556.867 347.789 561.047 346.744 570.543 341.603C571.569 341.046 572.697 340.376 573.868 339.639C602.31 342.33 688.519 348.947 697.184 331.273C714.319 296.317 669.433 228.659 669.433 228.659L619.603 263.3L635.389 290.046L574.752 300.54ZM460.291 389.221L433.885 389.218L428.008 352.904L415.799 404.568C408.294 413.129 399.629 423.236 398.317 425.725C395.94 430.235 391.524 452.572 391.727 456.985C391.931 461.398 405.571 481.229 405.571 481.229C414.052 479.217 408.528 468.976 408.528 468.976C408.528 468.976 416.114 475.198 419.272 475.094C449.011 474.115 447.436 459.532 446.735 457.707C445.161 453.605 437.218 458.294 437.218 458.294C437.218 458.294 451.039 431.207 449.279 410.508C452.374 404.699 456.183 397.408 460.291 389.221Z" fill="#FFD666"/>
<path opacity="0.199382" d="M430.911 423.684C430.911 423.684 426.722 438.948 412.377 443.702C407.361 445.364 408.602 464.999 396.311 462.647" stroke="#2E172B" stroke-width="3"/>
<path fill-rule="evenodd" clip-rule="evenodd" d="M512.024 249.743C512.536 252.353 514.058 254.255 515.423 253.989C516.786 253.724 517.478 251.393 516.966 248.783C516.453 246.173 514.932 244.271 513.567 244.537C512.202 244.802 511.512 247.133 512.024 249.743" fill="#472B43"/>
</g>
</svg>
