<svg width="24" height="24" viewBox="0 0 24 24" fill="none" xmlns="http://www.w3.org/2000/svg">
<path fill-rule="evenodd" clip-rule="evenodd" d="M8.89905 3.97198C7.4938 4.95813 6.57372 6.60116 6.57372 8.46141C6.57372 8.49255 6.57398 8.52363 6.57449 8.55465C6.46453 8.82407 6.40389 9.11925 6.40389 9.42865C6.40389 10.1999 6.78065 10.8828 7.35901 11.2986C7.77876 11.9951 8.34841 12.5891 9.02266 13.035H6.17949L5.65743 13.9613C4.21693 12.9805 3.26937 11.3167 3.26937 9.42865C3.26937 6.4124 5.68827 3.96724 8.67213 3.96724C8.74814 3.96724 8.82378 3.96883 8.89905 3.97198ZM3.53886 19.5306L2.75424 19.1131L5.63442 14.0022H2.87514L0 19.5243L2.7738 21L3.53886 19.5306Z" fill="#FF7066"/>
<path fill-rule="evenodd" clip-rule="evenodd" d="M20.4511 19.511L21.2263 21L24.0001 19.5243L21.125 14.0022H18.3187L21.1989 19.1131L20.4511 19.511ZM18.3086 13.9844C19.7682 13.0067 20.7307 11.3315 20.7307 9.42865C20.7307 6.4124 18.3118 3.96724 15.328 3.96724C15.2371 3.96724 15.1467 3.96951 15.0569 3.974C16.4574 4.95818 17.3753 6.59511 17.3793 8.44898C17.5185 8.74612 17.5962 9.07827 17.5962 9.42865C17.5962 10.2353 17.184 10.9453 16.5601 11.3542C16.1438 12.0267 15.5867 12.601 14.9304 13.035H17.7736L18.3086 13.9844Z" fill="#66FF88"/>
<path fill-rule="evenodd" clip-rule="evenodd" d="M6.57365 8.46141C6.57365 5.44516 8.99255 3 11.9764 3C14.9603 3 17.3792 5.44516 17.3792 8.46141C17.3792 10.3759 16.4049 12.0599 14.9302 13.035H17.7734L21.1987 19.1132L18.4249 20.5889L15.881 16.2035H8.07183L5.52796 20.5889L2.75417 19.1132L6.17942 13.035H9.02259C7.54796 12.0599 6.57365 10.3759 6.57365 8.46141ZM8.94264 8.46141C8.94264 6.76772 10.3009 5.3947 11.9764 5.3947C13.6519 5.3947 15.0102 6.76772 15.0102 8.46141C15.0102 10.1551 13.6519 11.5281 11.9764 11.5281C10.3009 11.5281 8.94264 10.1551 8.94264 8.46141Z" fill="#472B43"/>
</svg>
