<svg width="29" height="15" viewBox="0 0 29 15" fill="none" xmlns="http://www.w3.org/2000/svg">
<path fill-rule="evenodd" clip-rule="evenodd" d="M27.3228 7.10163C26.6909 9.25294 25.9654 11.7709 25.1696 14.631L25.067 15H21.162L19.9673 11.5819L19.9668 11.5805L21.7181 4.64607L21.7185 4.6473L22.8179 7.92345C23.0154 7.27837 23.2334 6.54479 23.4719 5.71879C23.9178 4.17449 24.4342 2.43377 25.0211 0.54574L25.1703 0.0656738L26.8518 0.582255L29 1.26792L28.8715 1.73399C28.4721 3.18183 27.9558 4.97128 27.3228 7.10163Z" fill="#66FF88"/>
<path fill-rule="evenodd" clip-rule="evenodd" d="M9.18287 11.201C8.81175 12.237 8.4021 13.3805 7.96352 14.6594L7.84672 15H4.03905L0 1.27561L3.85159 0L3.99066 0.515014C4.24594 1.46041 4.6184 2.70072 5.0874 4.24384L6.1989 7.90009L7.38729 4.37606L9.18287 11.201Z" fill="#FF7066"/>
<path fill-rule="evenodd" clip-rule="evenodd" d="M22.9151 7.10168C22.2832 9.25298 21.5577 11.7709 20.7619 14.6311L20.6593 15H16.7543L15.5596 11.5819L15.5591 11.5805C15.3831 11.0872 15.2016 10.5683 15.0107 10.0226C14.8536 9.57349 14.69 9.10614 14.518 8.61975L13.9103 10.3584C13.813 10.6313 13.7124 10.9119 13.6089 11.201C13.2378 12.237 12.8281 13.3805 12.3895 14.6594L12.2727 15H8.46508L4.42603 1.27561L8.27761 0L8.41668 0.515013C8.67197 1.46041 9.04442 2.70072 9.51342 4.24384L10.6249 7.90009L13.0017 0.852032H16.0481L17.3104 4.64612L17.3108 4.64735L18.4102 7.9235C18.6077 7.27841 18.8257 6.54484 19.0642 5.71883C19.5101 4.17454 20.0265 2.43382 20.6134 0.545786L20.7626 0.0657207L22.4441 0.582302L24.5923 1.26796L24.4638 1.73404C24.0644 3.18188 23.5481 4.97133 22.9151 7.10168Z" fill="#472B43"/>
</svg>
