<svg width="154" height="43" viewBox="0 0 154 43" fill="none" xmlns="http://www.w3.org/2000/svg">
<g filter="url(#filter0_d)">
<path d="M30.4049 40.0724L28.9099 39.7734L27.5644 39.2751C27.1009 39.0726 26.6515 38.8395 26.2189 38.5774C25.4879 38.1154 24.8181 37.5628 24.2256 36.9329C23.5955 36.2672 23.0438 35.5315 22.5811 34.7402C22.1099 33.9488 21.7573 33.0925 21.5346 32.1988C21.2933 31.2885 21.176 30.3498 21.1858 29.4081C21.1858 28.9098 21.2356 28.3616 21.2854 27.8633L21.5844 26.4181C21.7339 25.9198 21.9333 25.4713 22.0828 25.0228L22.7804 23.7271C23.2701 23.001 23.8202 22.3175 24.4249 21.684C25.1034 21.0692 25.8374 20.5187 26.6176 20.0395C27.4112 19.5843 28.2676 19.2485 29.1591 19.0428C30.0523 18.8011 30.9746 18.6838 31.8999 18.694C32.4168 18.6777 32.9341 18.711 33.4447 18.7937L34.8899 19.0927C35.3721 19.2061 35.8402 19.3733 36.2852 19.591L37.5808 20.2887C38.3364 20.7372 39.0243 21.2909 39.624 21.9332C40.2388 22.6116 40.7893 23.3456 41.2685 24.1258C41.76 24.9069 42.114 25.7665 42.315 26.6673C42.5599 27.5599 42.6773 28.4826 42.6638 29.4081C42.6736 30.3498 42.5563 31.2885 42.315 32.1988C42.114 33.0995 41.76 33.9591 41.2685 34.7402C40.7893 35.5204 40.2388 36.2544 39.624 36.9329C39.0243 37.5751 38.3364 38.1288 37.5808 38.5774L36.2852 39.2751L34.8899 39.7734L33.4447 40.0724L31.8999 40.172L30.4049 40.0724ZM29.9066 24.5245C29.2765 24.7999 28.7023 25.1883 28.2122 25.6706C27.7254 26.1569 27.3363 26.7321 27.0661 27.365C26.7816 28.0075 26.6454 28.7058 26.6674 29.4081C26.6454 30.1104 26.7816 30.8087 27.0661 31.4513C27.3363 32.0841 27.7254 32.6593 28.2122 33.1456C28.7023 33.6279 29.2765 34.0163 29.9066 34.2917C30.542 34.5366 31.2191 34.6551 31.8999 34.6406C32.5969 34.6553 33.2904 34.5369 33.943 34.2917C34.5662 34.0041 35.1385 33.617 35.6374 33.1456C36.1242 32.6593 36.5133 32.0841 36.7835 31.4513C37.0445 30.8016 37.1798 30.1083 37.1822 29.4081C37.1798 28.708 37.0445 28.0146 36.7835 27.365C36.5133 26.7321 36.1242 26.1569 35.6374 25.6706C35.1385 25.1992 34.5662 24.8121 33.943 24.5245C33.2904 24.2793 32.5969 24.1609 31.8999 24.1756C31.2191 24.1611 30.542 24.2796 29.9066 24.5245Z" fill="#472B43"/>
<path d="M53.0786 40.0723L44.8562 20.2886L49.8395 18.395C50.4873 19.89 51.2846 21.7338 52.1816 23.9264C53.0786 26.1191 54.1749 28.8101 55.4208 31.8L61.0519 18.395L63.1449 19.1425L66.0352 20.2886L57.8128 40.0723H53.0786Z" fill="#472B43"/>
<path d="M75.0055 31.0525C75.1165 31.6209 75.3365 32.1624 75.6534 32.6472C75.9471 33.0761 76.2994 33.4619 76.6999 33.7933C77.1334 34.1148 77.6237 34.3515 78.145 34.491C78.6966 34.647 79.2662 34.7307 79.8394 34.7402C80.2098 34.7397 80.5786 34.6894 80.9357 34.5907C81.3289 34.4715 81.7122 34.3215 82.0818 34.1422L83.0785 33.5442C83.3598 33.3684 83.612 33.1499 83.826 32.8964H83.8758L87.6133 36.6837C87.1313 37.2323 86.5972 37.733 86.0186 38.1787C85.3941 38.584 84.7451 38.9501 84.0752 39.275C83.3902 39.5894 82.6711 39.8235 81.9323 39.9726C81.2521 40.1697 80.5476 40.2703 79.8394 40.2716C78.4628 40.2845 77.0953 40.0481 75.8029 39.574C74.5762 39.1294 73.456 38.4335 72.5139 37.5308C71.5407 36.6427 70.7458 35.5772 70.1717 34.3913C69.631 33.1757 69.2942 31.8793 69.1751 30.5542V29.6074C69.1751 29.109 69.1751 28.5609 69.2249 28.0625L69.5239 26.5676C69.6519 26.0897 69.8186 25.6231 70.0222 25.1722C70.1704 24.7185 70.3711 24.2837 70.6202 23.8766C71.0137 23.0946 71.5172 22.373 72.1152 21.7337C72.7012 21.1109 73.3723 20.574 74.1086 20.1391C74.8179 19.7269 75.5698 19.3927 76.351 19.1424C77.1806 18.9219 78.0342 18.8047 78.8925 18.7936H79.042C80.4442 18.7789 81.8346 19.0502 83.1283 19.5909C84.2948 20.1035 85.3204 20.8899 86.1183 21.8832C86.9075 22.8639 87.515 23.9778 87.9123 25.1722C88.3612 26.4181 88.5807 27.7351 88.5601 29.0592V29.7569L88.4605 30.4545C88.4605 30.7037 88.4106 30.903 88.4106 31.1024L75.0055 31.0525ZM83.1782 27.5642C83.0738 27.1019 82.9235 26.6512 82.7297 26.2187C82.517 25.7871 82.249 25.385 81.9323 25.0227C81.6216 24.6332 81.2069 24.3395 80.7363 24.1756C80.1962 23.9675 79.6208 23.866 79.042 23.8766C78.5158 23.8581 77.991 23.9427 77.4972 24.1257C77.0524 24.3148 76.6468 24.5852 76.3012 24.9231C75.948 25.2781 75.6461 25.6806 75.4042 26.1191C75.1901 26.557 75.0552 27.0294 75.0055 27.5144L83.1782 27.5642Z" fill="#472B43"/>
<path d="M104.806 24.375H103.659C102.904 24.3546 102.154 24.508 101.467 24.8235C100.849 25.1825 100.321 25.6766 99.9219 26.2687C99.5136 26.8963 99.2107 27.5865 99.0249 28.3118C98.8429 29.1304 98.7428 29.9651 98.7259 30.8035V40.1223H93.0449V31.3018C93.0449 27.8135 93.0449 23.7272 92.9951 19.0429H98.7259V22.0827C99.0687 21.6482 99.4525 21.2476 99.872 20.8867C100.261 20.5161 100.696 20.1978 101.168 19.9399L102.563 19.2422C103.077 19.0661 103.614 18.9654 104.158 18.9432H105.802L105.503 21.3352C105.404 22.2322 105.254 23.3285 105.154 24.6242L104.806 24.375Z" fill="#472B43"/>
<path d="M129.921 18.8436V40.0226H125.486L125.038 38.727L124.49 36.933L123.194 38.2286C122.7 38.618 122.166 38.9522 121.599 39.2253L119.905 39.923C119.325 40.1031 118.719 40.1873 118.111 40.1721H117.762C116.939 40.1742 116.119 40.0737 115.32 39.8731C114.502 39.684 113.714 39.3822 112.978 38.9761C112.196 38.5826 111.475 38.0792 110.835 37.4811C110.182 36.8783 109.613 36.1912 109.141 35.438C108.879 35.0226 108.646 34.5897 108.443 34.1423C108.233 33.66 108.066 33.1596 107.945 32.6473C107.776 32.1116 107.66 31.5609 107.596 31.0028C107.512 30.3921 107.479 29.7753 107.497 29.159C107.48 28.609 107.513 28.0586 107.596 27.5145C107.665 27.0063 107.782 26.5057 107.945 26.0195C108.098 25.5269 108.281 25.0442 108.493 24.5744C108.669 24.1396 108.886 23.7224 109.141 23.3285C109.626 22.6 110.194 21.931 110.835 21.3352C111.476 20.7526 112.198 20.2658 112.978 19.8901C113.731 19.4833 114.536 19.1814 115.37 18.9931C116.151 18.7897 116.955 18.6892 117.762 18.6941H118.51C119.149 18.7575 119.783 18.8742 120.403 19.0429C120.98 19.2019 121.533 19.4365 122.048 19.7406C122.497 20.0322 122.929 20.3483 123.343 20.6874C123.731 21.0324 124.082 21.4165 124.39 21.8336V18.8436H129.921ZM123.991 27.1159C123.709 26.3921 123.285 25.7315 122.745 25.1724C122.193 24.6352 121.553 24.197 120.852 23.8767C120.143 23.5754 119.38 23.4228 118.609 23.4282C117.855 23.4224 117.108 23.5752 116.417 23.8767C115.747 24.1999 115.14 24.6385 114.623 25.1724C114.068 25.7296 113.628 26.3898 113.327 27.1159C113.066 27.852 112.931 28.6271 112.928 29.4082C112.931 30.1893 113.066 30.9643 113.327 31.7005C113.604 32.4393 114.047 33.1043 114.623 33.644C115.133 34.2203 115.762 34.6793 116.466 34.9895C117.156 35.2954 117.904 35.4484 118.659 35.438C119.429 35.4434 120.193 35.2908 120.902 34.9895C121.606 34.6793 122.235 34.2203 122.745 33.644C123.308 33.1132 123.75 32.4674 124.041 31.7503C124.327 31.0034 124.462 30.2075 124.44 29.4082C124.421 28.6242 124.269 27.8491 123.991 27.1159V27.1159Z" fill="#472B43"/>
<path d="M140.486 39.9727H134.656V10.6709H140.486V39.9727Z" fill="#472B43"/>
<path d="M151.748 39.9727H145.968V10.6709H151.748V39.9727Z" fill="#472B43"/>
<path d="M10.1843 2L9.94903 8.58172L4.04362 5.52855L2 9.17961L7.98383 12.5317L12.4092 15.0115L14.3646 13.8402V8.71404V2H10.1843Z" fill="#FF7066"/>
<path d="M15.9672 11.9436L21.4021 8.43959L19.2556 4.85223L13.5511 8.26316L9.14044 10.9047L9.14534 13.1884L13.5511 15.6535L19.4565 18.9615L21.5002 15.3154L15.9672 11.9436Z" fill="#66FF88"/>
<path d="M12.3503 8.9787L7.98371 11.5908L2.0979 15.1145L4.24443 18.7018L9.96362 15.5359L10.1842 22H14.3645V15.1635V10.1059L12.3503 8.9787Z" fill="#472B43"/>
</g>
<defs>
<filter id="filter0_d" x="0" y="0" width="153.748" height="42.2722" filterUnits="userSpaceOnUse" color-interpolation-filters="sRGB">
<feFlood flood-opacity="0" result="BackgroundImageFix"/>
<feColorMatrix in="SourceAlpha" type="matrix" values="0 0 0 0 0 0 0 0 0 0 0 0 0 0 0 0 0 0 127 0"/>
<feOffset/>
<feGaussianBlur stdDeviation="1"/>
<feColorMatrix type="matrix" values="0 0 0 0 0 0 0 0 0 0 0 0 0 0 0 0 0 0 0.06 0"/>
<feBlend mode="normal" in2="BackgroundImageFix" result="effect1_dropShadow"/>
<feBlend mode="normal" in="SourceGraphic" in2="effect1_dropShadow" result="shape"/>
</filter>
</defs>
</svg>
