<svg width="157" height="63" viewBox="0 0 157 63" fill="none" xmlns="http://www.w3.org/2000/svg">
<path d="M30.1857 39.8008L28.6233 39.4884L27.2171 38.9676C26.7328 38.756 26.263 38.5124 25.811 38.2384C25.047 37.7556 24.347 37.1782 23.7278 36.5198C23.0693 35.8241 22.4927 35.0552 22.0092 34.2283C21.5167 33.4012 21.1482 32.5063 20.9155 31.5722C20.6633 30.6209 20.5407 29.6399 20.5509 28.6558C20.5509 28.135 20.603 27.5621 20.6551 27.0413L20.9676 25.531C21.1238 25.0102 21.3321 24.5414 21.4884 24.0727L22.2175 22.7186C22.7292 21.9598 23.3041 21.2455 23.9361 20.5834C24.6451 19.9409 25.4123 19.3655 26.2276 18.8647C27.057 18.389 27.952 18.0381 28.8837 17.8231C29.8172 17.5705 30.7811 17.4479 31.7481 17.4586C32.2883 17.4415 32.829 17.4764 33.3626 17.5627L34.8729 17.8752C35.3769 17.9938 35.866 18.1685 36.3311 18.396L37.6852 19.1251C38.4748 19.5939 39.1938 20.1726 39.8205 20.8438C40.463 21.5528 41.0383 22.3199 41.5391 23.1353C42.0528 23.9516 42.4227 24.85 42.6328 25.7914C42.8887 26.7242 43.0115 27.6885 42.9973 28.6558C43.0076 29.6399 42.885 30.6209 42.6328 31.5722C42.4227 32.5136 42.0528 33.412 41.5391 34.2283C41.0383 35.0437 40.463 35.8108 39.8205 36.5198C39.1938 37.191 38.4748 37.7697 37.6852 38.2384L36.3311 38.9676L34.8729 39.4884L33.3626 39.8008L31.7481 39.905L30.1857 39.8008ZM29.6649 23.5519C29.0065 23.8398 28.4063 24.2457 27.8942 24.7498C27.3854 25.258 26.9787 25.8591 26.6963 26.5205C26.3991 27.192 26.2567 27.9218 26.2797 28.6558C26.2567 29.3898 26.3991 30.1195 26.6963 30.791C26.9787 31.4524 27.3854 32.0535 27.8942 32.5617C28.4063 33.0658 29.0065 33.4718 29.6649 33.7596C30.329 34.0155 31.0366 34.1393 31.7481 34.1241C32.4766 34.1395 33.2013 34.0158 33.8834 33.7596C34.5347 33.459 35.1327 33.0544 35.6541 32.5617C36.1629 32.0535 36.5695 31.4524 36.8519 30.791C37.1247 30.1121 37.2661 29.3875 37.2686 28.6558C37.2661 27.924 37.1247 27.1995 36.8519 26.5205C36.5695 25.8591 36.1629 25.258 35.6541 24.7498C35.1327 24.2571 34.5347 23.8525 33.8834 23.5519C33.2013 23.2957 32.4766 23.172 31.7481 23.1874C31.0366 23.1722 30.329 23.296 29.6649 23.5519Z" fill="#472B43"/>
<path d="M53.8819 39.8008L45.2888 19.1251L50.4967 17.1461C51.1738 18.7085 52.0071 20.6355 52.9445 22.927C53.8819 25.2185 55.0277 28.0308 56.3297 31.1556L62.2147 17.1461L64.4021 17.9273L67.4227 19.1251L58.8295 39.8008H53.8819Z" fill="#472B43"/>
<path d="M76.7971 30.3744C76.9131 30.9684 77.143 31.5343 77.4741 32.0409C77.7811 32.4892 78.1493 32.8924 78.5678 33.2388C79.0209 33.5747 79.5333 33.8221 80.0781 33.9679C80.6546 34.1309 81.2498 34.2184 81.8489 34.2283C82.2361 34.2278 82.6214 34.1752 82.9946 34.072C83.4056 33.9475 83.8061 33.7908 84.1925 33.6033L85.234 32.9784C85.5281 32.7947 85.7916 32.5663 86.0152 32.3013H86.0673L89.9733 36.2594C89.4695 36.8328 88.9114 37.356 88.3068 37.8218C87.6541 38.2454 86.9757 38.628 86.2756 38.9675C85.5598 39.2962 84.8083 39.5408 84.0362 39.6967C83.3253 39.9026 82.589 40.0078 81.8489 40.0091C80.4102 40.0225 78.9811 39.7755 77.6304 39.28C76.3484 38.8154 75.1777 38.0881 74.1931 37.1447C73.1761 36.2166 72.3453 35.103 71.7454 33.8637C71.1802 32.5933 70.8283 31.2384 70.7038 29.8536V28.8641C70.7038 28.3433 70.7038 27.7704 70.7558 27.2496L71.0683 25.6872C71.2021 25.1878 71.3763 24.7001 71.5891 24.229C71.744 23.7548 71.9538 23.3004 72.2141 22.8749C72.6253 22.0576 73.1515 21.3035 73.7765 20.6354C74.3888 19.9845 75.0902 19.4234 75.8597 18.9689C76.601 18.5381 77.3868 18.1889 78.2033 17.9273C79.0702 17.6968 79.9623 17.5743 80.8593 17.5627H81.0156C82.4809 17.5473 83.934 17.8309 85.2861 18.396C86.5052 18.9317 87.5771 19.7535 88.4109 20.7917C89.2357 21.8166 89.8706 22.9806 90.2858 24.229C90.755 25.531 90.9844 26.9073 90.9628 28.2912V29.0203L90.8587 29.7494C90.8587 30.0098 90.8066 30.2181 90.8066 30.4265L76.7971 30.3744ZM85.3382 26.7288C85.2291 26.2456 85.0721 25.7746 84.8695 25.3226C84.6473 24.8715 84.3671 24.4513 84.0362 24.0727C83.7114 23.6656 83.2781 23.3586 82.7863 23.1874C82.2217 22.9699 81.6205 22.8638 81.0156 22.8749C80.4656 22.8555 79.9171 22.944 79.4011 23.1353C78.9363 23.3329 78.5124 23.6155 78.1512 23.9686C77.7821 24.3396 77.4665 24.7602 77.2137 25.2185C76.99 25.6762 76.849 26.1699 76.7971 26.6767L85.3382 26.7288Z" fill="#472B43"/>
<path d="M107.941 23.3957H106.743C105.953 23.3743 105.169 23.5347 104.452 23.8644C103.806 24.2396 103.254 24.7559 102.837 25.3747C102.41 26.0307 102.094 26.7519 101.9 27.51C101.709 28.3655 101.605 29.2378 101.587 30.114V39.8529H95.65V30.6348C95.65 26.9892 95.65 22.7186 95.5979 17.8231H101.587V21C101.945 20.5459 102.346 20.1273 102.785 19.7501C103.191 19.3628 103.647 19.0302 104.139 18.7606L105.597 18.0315C106.135 17.8474 106.696 17.7421 107.264 17.719H108.982L108.67 20.2188C108.566 21.1562 108.41 22.302 108.305 23.6561L107.941 23.3957Z" fill="#472B43"/>
<path d="M134.189 17.6148V39.7488H129.554L129.085 38.3947L128.512 36.5198L127.158 37.8739C126.642 38.2808 126.084 38.6301 125.492 38.9155L123.721 39.6446C123.114 39.8329 122.481 39.9209 121.846 39.905H121.482C120.621 39.9072 119.764 39.8022 118.93 39.5925C118.074 39.3949 117.25 39.0794 116.482 38.6551C115.665 38.2439 114.911 37.7177 114.242 37.0927C113.56 36.4626 112.965 35.7446 112.472 34.9574C112.198 34.5233 111.954 34.0709 111.743 33.6033C111.522 33.0992 111.348 32.5763 111.222 32.0409C111.046 31.4811 110.923 30.9055 110.857 30.3223C110.769 29.684 110.734 29.0394 110.753 28.3954C110.736 27.8205 110.771 27.2453 110.857 26.6767C110.929 26.1456 111.051 25.6224 111.222 25.1143C111.381 24.5995 111.573 24.095 111.795 23.604C111.979 23.1496 112.205 22.7136 112.472 22.302C112.978 21.5406 113.573 20.8414 114.242 20.2188C114.912 19.6099 115.666 19.1012 116.482 18.7085C117.268 18.2833 118.11 17.9679 118.982 17.7711C119.798 17.5585 120.638 17.4535 121.482 17.4586H122.263C122.931 17.5249 123.593 17.6468 124.242 17.8231C124.844 17.9893 125.422 18.2344 125.96 18.5523C126.43 18.857 126.882 19.1874 127.314 19.5418C127.719 19.9023 128.086 20.3037 128.408 20.7396V17.6148H134.189ZM127.992 26.2601C127.696 25.5037 127.253 24.8133 126.69 24.229C126.112 23.6676 125.443 23.2096 124.71 22.8749C123.97 22.56 123.172 22.4005 122.367 22.4062C121.579 22.4001 120.798 22.5598 120.075 22.8749C119.376 23.2126 118.741 23.671 118.201 24.229C117.621 24.8113 117.161 25.5012 116.846 26.2601C116.573 27.0294 116.433 27.8394 116.43 28.6558C116.433 29.4721 116.573 30.2821 116.846 31.0514C117.136 31.8235 117.599 32.5186 118.201 33.0825C118.734 33.6849 119.391 34.1646 120.127 34.4887C120.849 34.8084 121.63 34.9683 122.419 34.9574C123.224 34.9631 124.022 34.8036 124.763 34.4887C125.499 34.1646 126.156 33.6849 126.69 33.0825C127.278 32.5279 127.74 31.8528 128.044 31.1035C128.342 30.3229 128.484 29.4911 128.46 28.6558C128.441 27.8364 128.282 27.0263 127.992 26.2601Z" fill="#472B43"/>
<path d="M145.23 39.6967H139.137V9.07372H145.23V39.6967Z" fill="#472B43"/>
<path d="M157 39.6967H150.959V9.07372H157V39.6967Z" fill="#472B43"/>
<path d="M123.461 53.2895L123.981 53.4978L124.398 53.8624C124.545 53.956 124.669 54.0804 124.763 54.2269V50.5814H125.96V60.112H125.075L124.919 59.6953C124.854 59.4903 124.802 59.2816 124.763 59.0704C124.651 59.2344 124.51 59.3758 124.346 59.487L123.877 59.7995L123.304 60.0599L122.731 60.1641H122.575L121.95 60.0599L121.273 59.8516L120.544 59.4349C120.309 59.2351 120.1 59.0078 119.919 58.7579C119.803 58.6395 119.714 58.4973 119.659 58.3413C119.567 58.1773 119.497 58.0023 119.45 57.8205C119.391 57.6348 119.356 57.4423 119.346 57.2476C119.301 57.0249 119.284 56.7975 119.294 56.5705C119.286 56.3781 119.303 56.1854 119.346 55.9977C119.356 55.82 119.391 55.6446 119.45 55.4769C119.498 55.3118 119.568 55.1541 119.659 55.0081L119.919 54.5915C120.085 54.3298 120.296 54.1004 120.544 53.9145L121.273 53.4978C121.516 53.3646 121.78 53.2764 122.054 53.2374H122.836C123.045 53.2075 123.259 53.2253 123.461 53.2895ZM123.513 58.81C123.787 58.6849 124.035 58.5081 124.242 58.2892C124.445 58.0798 124.604 57.8319 124.711 57.5601C124.817 57.2771 124.87 56.9769 124.867 56.6747C124.87 56.3725 124.817 56.0723 124.711 55.7893C124.604 55.5175 124.445 55.2696 124.242 55.0602C124.049 54.8252 123.798 54.6455 123.513 54.5394C123.248 54.4322 122.965 54.3791 122.679 54.3832C122.377 54.3802 122.077 54.4331 121.794 54.5394C121.526 54.6491 121.292 54.829 121.117 55.0602C120.898 55.2675 120.721 55.5151 120.596 55.7893C120.49 56.0723 120.437 56.3725 120.44 56.6747C120.437 56.9769 120.49 57.2771 120.596 57.5601C120.721 57.8343 120.898 58.0819 121.117 58.2892C121.305 58.5066 121.536 58.6838 121.794 58.81C122.077 58.9163 122.377 58.9692 122.679 58.9662C122.965 58.9704 123.248 58.9172 123.513 58.81Z" fill="#472B43"/>
<path d="M127.523 50.5293H128.773V51.675H127.523V50.5293ZM127.523 53.1854H128.773V60.0599H127.523V53.1854Z" fill="#472B43"/>
<path d="M136.428 53.2374V59.2787C136.447 59.7904 136.376 60.3014 136.22 60.789C136.127 61.1815 135.929 61.5414 135.647 61.8306C135.395 62.1294 135.073 62.3619 134.71 62.5076C134.274 62.6563 133.816 62.7268 133.356 62.716L132.575 62.6118L131.845 62.3514L131.22 61.9348L130.7 61.466L131.012 61.1536L131.481 60.6848L131.845 60.9973L132.262 61.3098L132.783 61.466H133.356C133.638 61.4868 133.921 61.4514 134.189 61.3619C134.42 61.2833 134.632 61.1594 134.814 60.9973C134.996 60.8099 135.122 60.5755 135.179 60.3203C135.289 59.9665 135.342 59.5972 135.335 59.2266V58.6016L134.97 59.0183C134.851 59.1466 134.71 59.2525 134.554 59.3308L134.085 59.5912L133.46 59.6953H132.731L132.002 59.487C131.73 59.381 131.482 59.2216 131.273 59.0183L130.7 58.4454C130.601 58.3141 130.514 58.1747 130.439 58.0288L130.283 57.6121C130.207 57.4465 130.155 57.2713 130.127 57.0913V56.5185C130.133 56.169 130.168 55.8206 130.231 55.4769C130.306 55.1557 130.448 54.854 130.648 54.5915C130.797 54.3486 130.991 54.1365 131.22 53.9665L131.845 53.4978L132.21 53.3416L132.627 53.2374H133.356L133.929 53.3416C134.117 53.3646 134.297 53.4364 134.449 53.5499L134.866 53.8103L135.231 54.1749L135.543 53.2895L136.428 53.2374ZM135.231 55.6331C135.125 55.3612 134.965 55.1133 134.762 54.904C134.572 54.702 134.341 54.5423 134.085 54.4353C133.84 54.3227 133.573 54.2692 133.304 54.279C133.035 54.2761 132.769 54.3293 132.522 54.4353C132.266 54.5423 132.036 54.702 131.845 54.904C131.655 55.1039 131.497 55.3323 131.377 55.581C131.27 55.864 131.217 56.1641 131.22 56.4664C131.222 56.7344 131.275 56.9997 131.377 57.2476C131.483 57.5194 131.642 57.7674 131.845 57.9767C132.036 58.1787 132.266 58.3384 132.522 58.4454C132.769 58.5513 133.035 58.6046 133.304 58.6016C133.573 58.6115 133.84 58.558 134.085 58.4454C134.341 58.3384 134.572 58.1787 134.762 57.9767C134.964 57.7864 135.124 57.5557 135.231 57.2997C135.333 57.0337 135.386 56.7513 135.387 56.4664C135.391 56.181 135.338 55.8976 135.231 55.6331Z" fill="#472B43"/>
<path d="M138.043 50.5293H139.241V51.675H138.043V50.5293ZM138.043 53.1854H139.241V60.0599H138.043V53.1854Z" fill="#472B43"/>
<path d="M145.022 59.9037L144.501 60.0078H143.824C143.61 60.0251 143.395 59.9893 143.199 59.9037C142.987 59.872 142.789 59.7818 142.626 59.6433L142.418 59.487L142.261 59.3308L142.157 59.1225L142.053 58.9141C142 58.7805 141.965 58.6404 141.949 58.4975C141.906 58.3451 141.889 58.1868 141.897 58.0288C141.854 57.8943 141.836 57.753 141.845 57.6121V54.279H140.855V53.1854H141.845V50.4772H143.043V53.1854H144.813V54.279H143.043V57.4038C143.034 57.5447 143.052 57.686 143.095 57.8205C143.095 57.9246 143.095 58.0809 143.147 58.1329C143.199 58.185 143.199 58.2892 143.199 58.3933L143.355 58.6017C143.407 58.7058 143.459 58.7579 143.563 58.7579L143.876 58.8621H144.345L144.918 58.7579C144.97 59.2787 145.022 59.6433 145.022 59.9037Z" fill="#472B43"/>
<path d="M153.094 53.2374V60.0599H152.157L152 59.6432C151.936 59.4382 151.884 59.2295 151.844 59.0183C151.733 59.1823 151.591 59.3237 151.427 59.4349L150.959 59.7474L150.438 60.0078L149.813 60.112H149.032L148.615 60.0078L148.251 59.8516C147.995 59.7445 147.764 59.5848 147.574 59.3828C147.339 59.183 147.129 58.9557 146.949 58.7058C146.758 58.4379 146.617 58.138 146.532 57.8205C146.425 57.4479 146.373 57.0621 146.376 56.6747C146.368 56.3212 146.421 55.969 146.532 55.6331C146.606 55.3274 146.749 55.0426 146.949 54.7998C147.128 54.5338 147.338 54.2892 147.574 54.0707L148.251 53.602L148.667 53.4457L149.084 53.3416H149.917L150.542 53.4457C150.73 53.5003 150.907 53.5885 151.063 53.7061L151.532 54.0186L151.844 54.3832V53.4457L153.094 53.2374ZM151.792 55.7893C151.687 55.5014 151.528 55.2362 151.323 55.0081C151.114 54.8048 150.866 54.6455 150.594 54.5394C150.335 54.4098 150.051 54.3387 149.761 54.3311C149.475 54.327 149.192 54.3801 148.928 54.4873C148.664 54.6307 148.42 54.8056 148.198 55.0081C148.006 55.226 147.848 55.4718 147.73 55.7373C147.628 56.0214 147.575 56.3208 147.574 56.6226C147.571 56.9249 147.623 57.225 147.73 57.508C147.836 57.7798 147.995 58.0278 148.198 58.2371C148.406 58.456 148.653 58.6328 148.928 58.7579C149.192 58.8651 149.475 58.9183 149.761 58.9141C150.046 58.9183 150.33 58.8651 150.594 58.7579C150.879 58.6518 151.131 58.4721 151.323 58.2371C151.527 58.0278 151.686 57.7798 151.792 57.508C151.94 57.2369 152.012 56.9311 152 56.6226C152.013 56.3306 151.941 56.0411 151.792 55.7893Z" fill="#472B43"/>
<path d="M154.761 50.5293H155.958V60.0599H154.761V50.5293Z" fill="#472B43"/>
<path d="M13.1201 0.0118103V10.6383L9.89613 12.6317L0.598495 7.75594L2.44679 4.04999L2.85856 4.23248C3.88332 4.69572 5.87667 5.62221 8.78247 6.99322C8.81991 5.86553 8.8667 4.13889 8.93221 1.76652L8.97432 0.0118103H13.1201Z" fill="#FF7066"/>
<path d="M20.7611 6.55799L19.2825 7.52191C17.2891 8.82274 15.8386 9.77263 14.8934 10.395C17.5933 12.159 19.4322 13.371 20.3634 14.0027L20.7377 14.2553L18.5432 17.7788L9.49354 12.407L9.39996 8.49987L18.4777 2.91287L20.7611 6.55799Z" fill="#66FF88"/>
<path d="M8.97886 20.8438L8.90867 19.0844C8.81041 16.712 8.7449 14.9854 8.68875 13.8577C5.80166 15.2661 3.82235 16.2254 2.80695 16.698L2.39986 16.8898L0.500092 13.2119L6.08242 10.3904L9.79773 8.26131L13.1153 10.1704L13.12 20.7876L8.97886 20.8438Z" fill="#472B43"/>
</svg>
