<svg width="80" height="80" viewBox="0 0 80 80" fill="none" xmlns="http://www.w3.org/2000/svg">
<path fill-rule="evenodd" clip-rule="evenodd" d="M72.4255 37.9987C70.8275 43.4511 68.9929 49.8326 66.9807 57.0815L66.7211 58.0166H56.8464L53.8254 49.3537L53.8241 49.3501L58.2526 31.7753L58.2536 31.7784L61.0337 40.0816C61.5333 38.4467 62.0846 36.5875 62.6877 34.494C63.8152 30.5801 65.121 26.1683 66.605 21.3832L66.9824 20.1665L71.2345 21.4758L76.6668 23.2135L76.3417 24.3948C75.3317 28.0643 74.0261 32.5995 72.4255 37.9987Z" fill="#66FF88"/>
<path fill-rule="evenodd" clip-rule="evenodd" d="M26.5544 48.3881C25.616 51.0139 24.5801 53.9121 23.471 57.1534L23.1757 58.0166H13.5471L3.33337 23.233L13.073 20L13.4247 21.3053C14.0702 23.7013 15.0121 26.8448 16.1981 30.7558L19.0088 40.0223L22.0139 31.0909L26.5544 48.3881Z" fill="#FF7066"/>
<path fill-rule="evenodd" clip-rule="evenodd" d="M61.2796 37.9988C59.6816 43.4511 57.8469 49.8327 55.8348 57.0816L55.5752 58.0166H45.7004L42.6794 49.3537L42.6782 49.3501C42.2332 48.0997 41.7742 46.7848 41.2914 45.4017C40.894 44.2634 40.4805 43.079 40.0455 41.8462L38.5088 46.2527C38.2627 46.9444 38.0084 47.6556 37.7466 48.3882C36.8081 51.0139 35.7722 53.9121 34.6632 57.1534L34.3678 58.0166H24.7392L14.5255 23.233L24.2652 20L24.6168 21.3053C25.2624 23.7013 26.2042 26.8448 27.3902 30.7557L30.2009 40.0223L36.2111 22.1594H43.9146L47.1067 31.7753L47.1077 31.7784L49.8878 40.0816C50.3873 38.4467 50.9386 36.5875 51.5417 34.494C52.6693 30.5801 53.975 26.1684 55.4591 21.3833L55.8364 20.1666L60.0885 21.4758L65.5208 23.2136L65.1957 24.3948C64.1858 28.0643 62.8801 32.5995 61.2796 37.9988Z" fill="#472B43"/>
</svg>
